<svg width="240" height="98" viewBox="0 0 240 98" fill="none" xmlns="http://www.w3.org/2000/svg">
<g clip-path="url(#clip0_1_4)">
<path d="M10.7874 18.5328L11.4584 14.2966C9.83339 15.0675 8.70973 15.5698 8.08739 15.8034C6.64531 16.3185 5.4227 16.4967 4.41958 16.3378C3.21584 16.1471 2.25151 15.5435 1.52661 14.527C0.791163 13.4772 0.516322 12.3658 0.702088 11.1929C0.974794 9.97052 1.43514 8.76203 2.08311 7.56744C3.43438 5.02882 5.28157 3.30436 7.62469 2.39407C8.78976 1.92999 10.0668 1.80794 11.4557 2.02793C11.4866 2.03282 11.5174 2.03771 11.5483 2.0426L12.177 2.11844C12.8869 2.23088 13.167 2.56 13.0172 3.10579C11.7729 2.97198 10.5702 3.07416 9.40925 3.41234C8.2483 3.75052 7.19814 4.28817 6.25877 5.02529C5.33727 5.74943 4.55459 6.64584 3.91073 7.71452C3.28231 8.78565 2.87399 9.91538 2.68578 11.1037C2.49757 12.292 2.67056 13.1974 3.20476 13.8199C3.73896 14.4424 4.49219 14.8306 5.46445 14.9846C6.29781 15.1166 7.5127 14.9372 9.10911 14.4465C10.1238 14.1327 10.9091 13.7192 11.465 13.2061C11.7405 12.9649 11.9027 12.6901 11.9515 12.3814L12.4942 8.95536C12.0312 8.88203 10.9228 8.88841 9.16899 8.97448C7.43062 9.06301 6.42659 9.10964 6.1569 9.11439C6.08707 9.05587 6.0018 8.9949 5.90111 8.9315C5.80286 8.85266 5.75457 8.758 5.75625 8.64753C5.76205 8.41115 6.15778 8.10997 6.94346 7.744C7.12788 7.67829 8.17455 7.66214 10.0834 7.69554C11.9948 7.71351 13.2112 7.72425 13.7327 7.72775C14.2542 7.73124 14.6884 7.73673 15.0352 7.74421C15.1847 7.79952 15.3776 7.83007 15.614 7.83587C15.8528 7.82624 16.0713 7.84502 16.2695 7.89223C16.7609 7.98588 16.9496 8.29262 16.8356 8.81244L14.7896 9.29519C14.3473 10.1901 13.9196 11.9417 13.5065 14.5498L13.0065 18.0063C12.9576 18.315 12.9124 18.6005 12.8708 18.8628C12.3712 19.021 11.9053 19.0658 11.4732 18.9974C11.0411 18.929 10.8125 18.7741 10.7874 18.5328ZM17.7982 13.9718C18.0866 12.1508 19.1059 10.8094 20.856 9.94752C22.2453 9.26585 23.8344 8.97174 25.623 9.0652C25.7156 9.07987 25.9317 9.11409 26.2712 9.16786C26.6107 9.22164 27.0501 9.39405 27.5893 9.68512C28.7863 10.3177 29.5296 11.2185 29.819 12.3875C29.9358 12.8489 29.9697 13.234 29.9208 13.5426C29.8744 13.8359 29.8336 14.043 29.7987 14.164C29.4931 16.0931 28.5193 17.4971 26.8772 18.376C25.3578 19.1795 23.5796 19.4199 21.5425 19.0973C20.0764 18.865 19.019 18.3495 18.3703 17.5507C17.7371 16.7544 17.5464 15.5614 17.7982 13.9718ZM19.3074 14.7804C19.1559 15.7372 19.3079 16.4257 19.7634 16.8459C20.1101 17.1539 20.7387 17.3801 21.6492 17.5243C22.5598 17.6685 23.3732 17.7261 24.0897 17.6972C24.8062 17.6683 25.4614 17.5269 26.0553 17.2729C27.3301 16.7155 28.0909 15.6574 28.3378 14.0987C28.4844 13.1728 28.3573 12.3775 27.9563 11.7128C27.5164 10.9945 26.8566 10.5657 25.9769 10.4264C25.3579 10.4391 24.73 10.4583 24.0932 10.484C23.4717 10.5121 22.8628 10.6609 22.2665 10.9303C20.9738 11.5007 19.9875 12.7841 19.3074 14.7804ZM41.5073 18.2965C40.6626 18.0362 40.2623 17.7671 40.3063 17.4893C40.338 17.2887 40.5213 17.0804 40.8561 16.8645C41.1909 16.6486 41.5269 16.425 41.8641 16.1936C42.0107 15.2677 42.0356 14.2117 41.9387 13.0257C41.8442 11.8242 41.7854 10.8974 41.7621 10.2451C41.7389 9.59278 41.7688 9.00427 41.8519 8.47957C41.935 7.95486 42.0647 7.63528 42.2411 7.52082C42.4328 7.40882 42.683 7.37726 42.9917 7.42614C43.3003 7.47503 43.4936 7.5531 43.5716 7.66036C43.6519 7.75219 43.6978 7.86228 43.7091 7.99063C43.7204 8.11898 43.7151 8.2526 43.6931 8.3915C43.6865 8.53284 43.6966 8.6689 43.7233 8.7997C43.754 9.10514 43.97 9.28963 44.3713 9.35318C45.4077 9.50152 46.4551 9.58041 47.5136 9.58985C48.5744 9.58386 49.6276 9.57664 50.673 9.56821C52.7639 9.55133 54.2183 9.60767 55.0363 9.73722C55.8696 9.86921 56.5218 9.99624 56.9929 10.1183C56.9619 10.414 56.9524 10.6735 56.9645 10.8969C56.9766 11.1203 56.9716 11.3014 56.9496 11.4403C56.9081 11.7027 56.6388 11.7549 56.1417 11.5971C48.024 10.612 43.8931 10.5747 43.7488 11.4852C43.59 12.4883 43.5225 13.3635 43.5465 14.1109C43.573 14.8428 43.6024 15.3062 43.6348 15.5012C43.6827 15.6986 43.7529 15.8046 43.8455 15.8193C44.7251 15.9586 45.6247 16.022 46.5443 16.0094C47.4792 15.9993 48.4077 15.9803 49.3297 15.9523C50.2695 15.9113 51.207 15.8858 52.1419 15.8756C53.0769 15.8655 53.9842 15.9301 54.8639 16.0695C54.8793 16.0719 54.8772 16.1349 54.8577 16.2583C54.8406 16.3663 54.8133 16.4886 54.7759 16.625C54.6709 16.9881 54.6416 17.1733 54.6879 17.1806C53.9656 17.4459 52.7142 17.5562 50.9336 17.5115C50.1603 17.4997 49.3728 17.4778 48.5711 17.4458C47.7694 17.4137 47.0281 17.3991 46.3474 17.402C44.7854 17.3761 43.8528 17.5211 43.5496 17.8369L42.5764 22.3338C42.3797 22.4766 42.1734 22.531 41.9573 22.4968L41.1118 22.2916C41.0346 22.2794 40.9575 22.2672 40.8803 22.255L41.5073 18.2965ZM56.1322 21.3959C56.1713 21.149 56.2019 20.8058 56.224 20.3664C56.2641 19.914 56.3102 19.4229 56.3624 18.8933C56.4147 18.3637 56.4836 17.8289 56.5691 17.2887C56.6547 16.7486 56.7792 16.2621 56.9427 15.8292C57.3022 14.8579 57.7983 14.4223 58.431 14.5225C58.8436 14.7144 59.1046 14.914 59.2142 15.1211C59.3392 15.3308 59.3797 15.5745 59.3357 15.8523C59.2942 16.1146 59.1722 16.4354 58.9697 16.8147C58.2478 18.0767 57.8013 19.2478 57.6302 20.3281C57.5739 20.683 57.5372 21.0648 57.52 21.4734C57.6031 22.5465 58.37 23.1979 59.8207 23.4277C60.5769 23.5474 61.3153 23.5299 62.0359 23.3751C63.408 23.102 64.3769 22.678 64.9425 22.1032C65.1938 21.4153 65.361 20.809 65.4442 20.2843C65.5297 19.7441 65.5823 19.2621 65.602 18.8381C65.6372 18.4165 65.663 17.9539 65.6795 17.4503C65.7138 16.9337 65.7709 16.3732 65.8508 15.7689C66.0661 15.7081 66.2664 15.6923 66.4516 15.7216C66.6522 15.7534 66.8369 15.8855 67.0058 16.1179C67.1901 16.3528 67.3076 16.759 67.3585 17.3365C67.4249 17.9166 67.4213 18.5883 67.3478 19.3519C67.2768 20.1 67.1777 20.8753 67.0506 21.6778C66.939 22.4827 66.8232 23.2633 66.7035 24.0195C66.5861 24.7602 66.5156 25.4056 66.4918 25.9555C66.2797 26.0959 66.0888 26.1527 65.919 26.1258C65.3017 26.028 64.9442 25.3386 64.8465 24.0576C64.619 24.1956 64.2465 24.3501 63.729 24.5213C62.6224 24.9155 61.36 25.0952 59.9418 25.0605C59.6745 25.0498 59.3788 25.0188 59.0548 24.9674C58.7307 24.9161 58.3315 24.7896 57.8572 24.5879C57.3983 24.3887 56.9883 24.0311 56.6271 23.5151C56.2658 22.9991 56.1009 22.2927 56.1322 21.3959ZM69.637 17.4838C69.7381 16.6456 69.8246 15.8999 69.8964 15.2469C69.9706 14.5784 70.0245 14.0886 70.0579 13.7775C70.1092 13.4534 70.1092 12.6545 70.0578 11.3808C70.2261 11.2176 70.3853 11.0609 70.5357 10.9107C70.7015 10.7629 70.9078 10.7086 71.1547 10.7477C71.6949 10.8333 71.751 13.1756 71.3232 17.7746C71.0595 20.4381 70.7187 23.0893 70.3008 25.7282C70.1883 26.4381 69.6383 26.7149 68.6506 26.5584L68.469 26.506C68.5962 25.7035 68.7355 24.6735 68.8872 23.4162C69.0389 22.1588 69.1727 21.0647 69.2885 20.1338C69.4197 19.2054 69.5359 18.3221 69.637 17.4838ZM73.364 18.0741C73.4651 17.2359 73.5516 16.4902 73.6233 15.8372C73.6976 15.1687 73.7514 14.6789 73.7849 14.3678C73.8362 14.0437 73.8362 13.2448 73.7848 11.9711C73.953 11.8079 74.1123 11.6512 74.2627 11.501C74.4285 11.3532 74.6348 11.2989 74.8817 11.338C75.4219 11.4236 75.478 13.7659 75.0502 18.3649C74.7865 21.0284 74.4457 23.6796 74.0277 26.3185C73.9153 27.0284 73.3652 27.3052 72.3776 27.1487L72.196 27.0963C72.3231 26.2938 72.4625 25.2638 72.6142 24.0064C72.7659 22.7491 72.8996 21.655 73.0154 20.7241C73.1467 19.7957 73.2628 18.9124 73.364 18.0741ZM84.784 27.0255C84.8304 26.7323 84.9865 26.496 85.2522 26.3166C85.5358 26.1242 85.7454 25.9992 85.8811 25.9416C86.0346 25.871 86.1382 25.8162 86.1919 25.7773C86.0466 27.1939 86.8845 28.0464 88.7055 28.3348C90.1408 28.5621 91.8861 28.3798 93.9415 27.7878C95.3974 27.3856 96.4081 26.897 96.9737 26.3222C97.1598 26.146 97.2627 25.9962 97.2822 25.8727C97.3042 25.7338 97.2982 25.6221 97.2641 25.5376L87.9983 21.8632C87.7303 21.7575 87.481 21.5835 87.2504 21.3414C86.8258 20.9261 86.6354 20.5795 86.6794 20.3017C86.8481 19.2369 87.7571 18.3921 89.4063 17.7674C91.2222 17.09 93.5646 16.7333 96.4337 16.6973C97.0835 16.6895 97.564 16.7023 97.8751 16.7358C97.9628 16.7813 98.0968 16.8342 98.2771 16.8944C98.4753 16.9416 98.671 17.0042 98.8643 17.0823C99.3256 17.2661 99.4945 17.4985 99.3709 17.7795C99.2878 18.3042 98.2186 18.562 96.1635 18.5529C93.5097 18.5281 91.838 18.5955 91.1483 18.7552C90.474 18.9174 89.9682 19.1141 89.631 19.3454C89.3092 19.5792 89.11 19.8878 89.0335 20.2712C89.0213 20.3484 89.1853 20.4613 89.5256 20.6102C89.8659 20.759 90.2719 20.9419 90.7438 21.159C91.2181 21.3607 91.8316 21.6319 92.5845 21.9726C94.415 22.8004 96.6557 23.8356 99.3065 25.078C99.407 25.442 99.4341 25.7706 99.3876 26.0638C99.2581 26.8817 98.655 27.593 97.5784 28.1977C96.3637 28.8754 94.7531 29.3559 92.7465 29.6392C91.0812 29.8659 89.7778 29.9047 88.8365 29.7556C88.0494 29.6309 87.3229 29.3735 86.657 28.9832C85.9911 28.593 85.5014 28.2386 85.1881 27.92C84.8747 27.6015 84.74 27.3033 84.784 27.0255ZM109.712 30.5466C110.386 30.3844 111.041 30.243 111.677 30.1223C112.314 30.0015 112.902 29.984 113.442 30.0695C113.997 30.1575 114.248 30.3713 114.195 30.7108C114.182 30.7879 114.14 30.9077 114.066 31.0702C114.011 31.2196 113.772 31.3795 113.35 31.5499C112.945 31.7073 112.449 31.8423 111.862 31.9549C111.29 32.07 110.666 32.1611 109.991 32.2282C109.316 32.2953 108.66 32.3417 108.023 32.3674C106.701 32.4268 105.77 32.4138 105.23 32.3283C104.689 32.2427 104.113 32.0881 103.5 31.8644C102.902 31.6432 102.355 31.3509 101.859 30.9876C100.711 30.1414 100.238 29.0856 100.438 27.8201C100.453 27.7275 100.482 27.5423 100.526 27.2645C100.57 26.9867 100.748 26.6115 101.061 26.1389C101.375 25.6509 101.804 25.1889 102.348 24.7529C102.894 24.3016 103.51 23.9087 104.196 23.5744C105.639 22.8537 107.092 22.4669 108.556 22.414C109.067 22.3842 109.484 22.395 109.808 22.4463C110.148 22.5001 110.424 22.5518 110.638 22.6015C110.854 22.6357 111.075 22.6865 111.302 22.7541C111.531 22.8062 111.723 22.892 111.878 23.0114C112.248 23.2756 112.386 23.7009 112.293 24.2874C112.234 24.6578 111.915 24.9789 111.334 25.2507C111.18 25.3213 111.043 25.3866 110.923 25.4467C110.902 25.0795 110.849 24.7627 110.765 24.4962C110.681 24.2297 110.43 24.0635 110.014 23.9975C108.131 24.0949 106.473 24.4255 105.039 24.9894C103.418 25.6344 102.531 26.443 102.377 27.4153C102.36 27.5233 102.349 27.6403 102.345 27.7662C102.189 28.7539 102.456 29.5159 103.146 30.0524C103.668 30.4515 104.377 30.7219 105.272 30.8637C106.182 31.0079 106.985 31.0322 107.681 30.9367C108.378 30.8258 109.056 30.6957 109.712 30.5466ZM127.68 27.2227C127.105 26.657 126.308 26.2936 125.29 26.1322C124.333 25.9807 123.417 26.0176 122.543 26.243C120.897 26.6468 119.708 27.3127 118.976 28.2408C118.655 28.6647 118.454 29.139 118.371 29.6637C118.356 29.7563 118.314 30.0186 118.246 30.4507C118.18 30.8674 118.167 31.4506 118.206 32.2004C118.248 32.9348 118.21 33.6723 118.093 34.4131C117.767 34.3772 117.498 34.3742 117.288 34.4042C117.077 34.4341 116.903 34.4381 116.764 34.4161C116.625 34.3941 116.511 34.3128 116.423 34.1723C116.35 34.0341 116.279 33.7778 116.212 33.4033C116.211 33.3083 116.222 33.041 116.244 32.6016C116.266 32.1621 116.288 31.6276 116.308 30.9981C116.344 30.371 116.374 29.6875 116.396 28.9475C116.436 28.1945 116.474 27.457 116.509 26.7348C116.584 25.1647 116.632 24.0096 116.655 23.2696C116.713 22.8992 117.013 22.7568 117.553 22.8424C117.877 22.8937 118.109 23.0729 118.251 23.38C118.394 23.6717 118.492 24.0036 118.544 24.3757C118.598 24.7323 118.614 25.0828 118.591 25.4272C118.583 25.7741 118.584 26.0194 118.593 26.1632C120.918 24.6647 123.594 24.1551 126.618 24.6342C126.958 24.6879 127.312 24.7519 127.68 24.826C127.775 24.8252 127.892 24.8358 128.03 24.8578C128.169 24.8798 128.294 24.9944 128.403 25.2016C128.539 25.4445 128.582 25.7203 128.533 26.029C128.411 26.8006 128.126 27.1985 127.68 27.2227ZM133.033 35.0709C134.392 35.286 136.534 34.9925 139.461 34.1906C139.631 34.2175 139.76 34.3012 139.849 34.4418C139.94 34.5669 139.973 34.7066 139.948 34.861C139.165 35.8126 137.855 36.4435 136.018 36.7538C134.181 37.064 132.537 36.9065 131.086 36.2811C129.444 35.5622 128.555 34.4327 128.419 32.8925C128.435 32.5944 128.481 32.1984 128.56 31.7046C128.638 31.2107 128.864 30.5821 129.238 29.8187C129.63 29.0424 130.192 28.3404 130.924 27.7128C131.656 27.0853 132.472 26.6291 133.371 26.3445C134.271 26.0598 135.191 25.992 136.133 26.1411C137.028 26.2828 137.982 26.7504 138.995 27.5437C139.474 27.92 139.838 28.3178 140.088 28.7371C140.338 29.1563 140.432 29.5589 140.371 29.9447C140.354 30.0527 140.329 30.1595 140.297 30.2651C140.117 31.2016 139.567 31.7237 138.648 31.8313C138.246 31.8782 137.789 31.8613 137.28 31.7806L133.969 31.1138C132.858 30.9378 131.971 31.0426 131.309 31.4281C130.928 31.6367 130.626 31.9923 130.404 32.495C130.567 33.9605 131.444 34.8191 133.033 35.0709ZM138.287 28.5705C137.987 28.2698 137.66 28.0361 137.306 27.8694C136.953 27.7027 136.653 27.5998 136.406 27.5607C136.159 27.5216 135.744 27.5429 135.162 27.6247C134.582 27.691 134.06 27.7903 133.596 27.9225C132.453 28.2477 131.839 28.6803 131.753 29.2205C132.971 29.524 133.888 29.7247 134.505 29.8225C136.218 30.0938 137.399 30.1305 138.047 29.9326C138.442 29.8369 138.658 29.6734 138.695 29.4419C138.739 29.1641 138.603 28.8736 138.287 28.5705ZM145.858 37.1021C147.216 37.3172 149.359 37.0237 152.286 36.2218C152.456 36.2487 152.585 36.3324 152.673 36.473C152.764 36.5981 152.797 36.7378 152.773 36.8922C151.989 37.8438 150.679 38.4748 148.842 38.785C147.006 39.0952 145.362 38.9377 143.91 38.3123C142.268 37.5934 141.379 36.4639 141.244 34.9237C141.259 34.6256 141.306 34.2296 141.384 33.7358C141.462 33.2419 141.689 32.6133 142.063 31.8499C142.454 31.0736 143.017 30.3716 143.749 29.744C144.481 29.1165 145.297 28.6603 146.196 28.3757C147.095 28.091 148.016 28.0232 148.957 28.1723C149.852 28.314 150.806 28.7816 151.82 29.5749C152.298 29.9512 152.662 30.349 152.912 30.7683C153.162 31.1875 153.257 31.5901 153.196 31.9759C153.178 32.0839 153.154 32.1907 153.121 32.2963C152.941 33.2328 152.392 33.7549 151.473 33.8625C151.07 33.9094 150.614 33.8925 150.105 33.8118L146.793 33.145C145.682 32.969 144.795 33.0738 144.133 33.4593C143.752 33.6679 143.451 34.0235 143.229 34.5262C143.392 35.9917 144.268 36.8503 145.858 37.1021ZM151.111 30.6017C150.811 30.301 150.484 30.0673 150.131 29.9006C149.778 29.7339 149.478 29.631 149.231 29.5919C148.984 29.5528 148.569 29.5741 147.987 29.6559C147.407 29.7222 146.885 29.8215 146.421 29.9537C145.278 30.2789 144.663 30.7115 144.578 31.2517C145.795 31.5552 146.713 31.7559 147.33 31.8537C149.043 32.125 150.224 32.1617 150.872 31.9638C151.267 31.8681 151.483 31.7046 151.519 31.4731C151.563 31.1953 151.427 30.9048 151.111 30.6017ZM163.535 36.3661C163.825 34.5296 163.939 33.1633 163.875 32.2673C164.035 32.0554 163.868 31.9103 163.375 31.8321C162.85 31.749 162.15 31.7726 161.275 31.903C160.4 32.0333 159.68 32.1882 159.113 32.3674C157.768 32.7713 156.981 33.2477 156.751 33.7967L155.754 40.0933L154.203 39.8476C154.086 39.2911 154.219 37.8014 154.602 35.3785C154.945 33.2179 155.235 31.6345 155.473 30.6281C155.727 29.6243 155.889 29.0565 155.957 28.925C156.4 28.7262 156.744 28.6463 156.991 28.6854C157.377 28.7465 157.498 29.2324 157.354 30.1429C157.298 30.4978 157.219 30.8414 157.119 31.1736C157.037 31.4928 156.986 31.7141 156.967 31.8376C159.758 30.3971 161.84 29.7856 163.213 30.0031C164.772 30.25 165.46 31.6483 165.278 34.198C165.231 35.0924 165.084 36.3189 164.838 37.8776L164.525 39.7027C164.417 40.3817 164.329 41.04 164.259 41.6777C164.09 41.7458 163.96 41.7726 163.867 41.7579C163.823 41.7351 163.727 41.6961 163.577 41.6408C163.428 41.5855 163.231 41.5305 162.986 41.476C162.93 40.8343 162.944 40.1958 163.029 39.5606C163.116 38.91 163.202 38.3146 163.288 37.7745L163.535 36.3661Z" fill="#BE4AE1"/>
<path d="M216.164 87.37C216.368 87.5557 216.684 87.5407 216.87 87.3363L219.897 84.0066C220.083 83.8023 220.068 83.4861 219.863 83.3003C219.659 83.1145 219.343 83.1296 219.157 83.3339L216.466 86.2937L213.507 83.603C213.302 83.4172 212.986 83.4323 212.8 83.6366C212.615 83.841 212.63 84.1572 212.834 84.3429L216.164 87.37ZM176.921 39.4937C189.269 41.4694 214.415 53.7341 216.001 87.0238L216.999 86.9762C215.385 53.0659 189.731 40.5306 177.079 38.5063L176.921 39.4937Z" fill="#BE4AE1"/>
</g>
<defs>
<clipPath id="clip0_1_4">
<rect width="240" height="98" fill="white"/>
</clipPath>
</defs>
</svg>
